<svg fill="none" height="96" viewBox="0 0 96 96" width="96" xmlns="http://www.w3.org/2000/svg"><path d="m70 60c0 13.2548-10.7452 24-24 24s-24-10.7452-24-24 10.7452-24 24-24 24 10.7452 24 24z" fill="#ffac2f"/><path clip-rule="evenodd" d="m72 60c0 14.3594-11.6406 26-26 26s-26-11.6406-26-26 11.6406-26 26-26 26 11.6406 26 26zm-26 24c13.2548 0 24-10.7452 24-24s-10.7452-24-24-24-24 10.7452-24 24 10.7452 24 24 24z" fill="#884a28" fill-rule="evenodd"/><path clip-rule="evenodd" d="m46 84c13.2548 0 24-10.7452 24-24s-10.7452-24-24-24c-.9531 0-1.8932.0556-2.8173.1636 9.0489 1.2079 16.0289 8.957 16.0289 18.3364 0 10.2173-8.2828 18.5-18.5 18.5-9.6298 0-17.5412-7.3577-18.4191-16.758-.1925 1.2244-.2925 2.4795-.2925 3.758 0 13.2548 10.7452 24 24 24z" fill="#ff862f" fill-rule="evenodd"/><g fill="#dd7429"><path d="m61.2143 53.8572c0 1.0651-.8635 1.9285-1.9286 1.9285s-1.9286-.8634-1.9286-1.9285c0-1.0652.8635-1.9286 1.9286-1.9286s1.9286.8634 1.9286 1.9286z"/><path d="m67 57.7143c0 1.0652-.8635 1.9286-1.9286 1.9286s-1.9285-.8634-1.9285-1.9286c0-1.0651.8634-1.9285 1.9285-1.9285s1.9286.8634 1.9286 1.9285z"/><path d="m66.0357 51.4464c0 .7989-.6476 1.4465-1.4464 1.4465-.7989 0-1.4464-.6476-1.4464-1.4465 0-.7988.6475-1.4464 1.4464-1.4464.7988 0 1.4464.6476 1.4464 1.4464z"/><path d="m67.2116 66c0 1.6569-1.3432 3-3 3-1.6569 0-3-1.3431-3-3s1.3431-3 3-3c1.6568 0 3 1.3431 3 3z"/><path d="m61.2143 60.6072c0 1.0651-.8635 1.9285-1.9286 1.9285s-1.9286-.8634-1.9286-1.9285c0-1.0652.8635-1.9286 1.9286-1.9286s1.9286.8634 1.9286 1.9286z"/><path d="m63.1428 72.25c0 1.0651-.8634 1.9286-1.9285 1.9286s-1.9286-.8635-1.9286-1.9286.8635-1.9286 1.9286-1.9286 1.9285.8635 1.9285 1.9286z"/><path d="m58.0687 75.9286c0 1.0651-.8634 1.9285-1.9286 1.9285-1.0651 0-1.9285-.8634-1.9285-1.9285s.8634-1.9286 1.9285-1.9286c1.0652 0 1.9286.8635 1.9286 1.9286z"/><path d="m58.3571 69.3572c0 1.0651-.8634 1.9285-1.9285 1.9285s-1.9286-.8634-1.9286-1.9285c0-1.0652.8635-1.9286 1.9286-1.9286s1.9285.8634 1.9285 1.9286z"/><path d="m51.2857 78.5536c0 .7988-.6476 1.4464-1.4464 1.4464-.7989 0-1.4464-.6476-1.4464-1.4464s.6475-1.4464 1.4464-1.4464c.7988 0 1.4464.6476 1.4464 1.4464z"/></g><path d="m64.843 35.6173s-4.5711-7.8083-9.2176-8.0116c-4.6464-.2033-8.5972 3.8385-8.5972 3.8385s3.5827 4.3714 8.2291 4.5746c4.6465.2033 9.5857-.4015 9.5857-.4015z" fill="#64ac1d"/><path clip-rule="evenodd" d="m66.569 34.6068-1.726 1.0104.2431 1.9852c.6683-.0818 1.2506-.4944 1.5493-1.0979.2987-.6034.2737-1.3166-.0664-1.8977zm-19.5408-3.1626c-1.4302-1.3981-1.4298-1.3985-1.4293-1.399l.0032-.0032.0056-.0057.0155-.0157c.0124-.0124.0286-.0285.0486-.0482.0401-.0394.0954-.0929.1652-.1585.1394-.1311.3373-.3112.5874-.5233.4982-.4226 1.2143-.9817 2.0963-1.5356 1.725-1.0833 4.2874-2.2745 7.1921-2.1474 1.6925.074 3.2191.8248 4.4633 1.6995 1.2607.8863 2.3867 2.0092 3.3082 3.0665.9283 1.0651 1.6933 2.1147 2.2244 2.894.2668.3913.4775.7188.6234.9516.0731.1165.13.2096.1698.2754.0199.0329.0355.059.0468.0779l.0135.0228.0042.0072.0015.0025.0011.0018c.0002.0004 0 0-1.726 1.0104.2431 1.9852.2433 1.9852.2431 1.9852l-.0192.0023-.0473.0056c-.0407.0048-.0996.0116-.1753.0201-.1515.017-.3705.0407-.6468.0683-.5523.0552-1.3354.1262-2.2667.1908-1.8539.1284-4.3329.2336-6.7609.1274-2.9047-.1271-5.3533-1.5375-6.9771-2.7673-.8303-.6289-1.4948-1.2484-1.9541-1.7128-.2307-.2332-.4122-.4299-.5396-.5727-.0637-.0714-.1142-.1296-.1506-.1723-.0182-.0213-.033-.0388-.0442-.0522l-.0142-.017-.005-.0062-.0029-.0035c-.0004-.0005-.0008-.001 1.546-1.2687zm0 0-1.4302-1.3981c-.7126.7291-.7628 1.8774-.1166 2.6658zm16.5685 2.2942c-1.6736-2.3241-4.805-5.9942-7.9713-6.1327-4.6464-.2033-8.5972 3.8385-8.5972 3.8385s3.5827 4.3713 8.2291 4.5746c2.6934.1178 5.4851-.0359 7.3562-.1859 1.3568-.1088 2.2295-.2157 2.2295-.2157s-.4639-.7923-1.2463-1.8788z" fill="#156319" fill-rule="evenodd"/><path d="m70.5672 17.3076s-5.4932 9.6784-11.356 12.7688c-5.8627 3.0905-13.4133.2882-13.4133.2882s1.9548-7.8131 7.8175-10.9035c5.8627-3.0905 16.9518-2.1535 16.9518-2.1535z" fill="#87d623"/><path clip-rule="evenodd" d="m72.3065 18.2949-1.7393-.9872.1684-1.9929c.6794.0574 1.2828.457 1.6008 1.0602s.3067 1.3269-.0299 1.9199zm-4.0023-1.099c1.3881.0379 2.263.1118 2.263.1118s-.4334.7635-1.1866 1.9302c-1.9284 2.9869-5.9534 8.6161-10.1694 10.8386-5.8627 3.0905-13.4133.2881-13.4133.2881s1.9548-7.813 7.8175-10.9035c4.216-2.2224 11.1348-2.3621 14.6888-2.2652zm-22.5063 13.1687c-1.9402-.4854-1.94-.486-1.9399-.4866l.0013-.0049.0022-.009.0069-.0264c.0055-.0213.0131-.0501.0228-.0858.0194-.0715.0473-.1711.0841-.2957.0736-.249.1832-.599.3331-1.0248.2989-.849.7626-2.0131 1.4268-3.2853 1.3071-2.5033 3.5013-5.6376 6.9476-7.4542 3.3522-1.7671 7.9781-2.3109 11.5203-2.4646 1.8172-.0788 3.4404-.0574 4.6097-.0165.5856.0205 1.0599.0459 1.3907.0665.1654.0103.2952.0194.3851.0261.045.0033.0801.006.1048.008l.0291.0023.0085.0007.0046.0004c.0004 0 0 0-.1684 1.9929 1.7393.9872 1.7395.9869 1.7393.9872l-.0022.004-.0043.0074-.0145.0254c-.0123.0214-.0299.0519-.0526.0909-.0453.078-.1111.1902-.1961.3325-.17.2845-.417.6902-.731 1.1849-.627.9878-1.5267 2.3391-2.6186 3.7938-2.1284 2.8356-5.1911 6.3448-8.5433 8.1119-3.4463 1.8167-7.2721 1.8558-10.076 1.5196-1.4249-.1709-2.6473-.4462-3.5167-.6794-.436-.1169-.7867-.2242-1.0337-.3042-.1236-.0401-.2216-.0734-.2915-.0977-.035-.0122-.063-.0222-.0837-.0297l-.0257-.0093-.0087-.0032-.0047-.0017c-.0006-.0002-.0012-.0004.6947-1.8755zm-1.9402-.4854 1.9402.4854-.6959 1.8751c-.9557-.3548-1.4917-1.3715-1.2443-2.3605z" fill="#156319" fill-rule="evenodd"/><path d="m58.7037 29.1847c4.9846-2.6276 9.8072-10.5676 9.8072-10.5676-11.3345 2.8883-18.7622 8.6043-21.0592 11.1012 0 0 6.2674 2.094 11.252-.5336z" fill="#79c01e"/><path d="m36.946 25.1521c2.054.8479 7.054 8.8479 8.4447 12.9116.116.339 1.0473-.0155.9502-.3116-.5662-3.7507-2.8409-12.7521-5.3409-15.7521-2.9311.1741-4.047 2.3297-4.054 3.1521z" fill="#8c5936"/><path clip-rule="evenodd" d="m36.1647 26.9931c-.7439-.3156-1.2254-1.0486-1.2186-1.858.009-1.0638.6005-2.2766 1.4977-3.1977.9843-1.0106 2.4607-1.8165 4.4376-1.9339.6341-.0377 1.2484.2281 1.655.7161.8085.9702 1.5096 2.3025 2.1084 3.6849.6119 1.4127 1.1727 3.0102 1.6624 4.6019.9607 3.1225 1.6875 6.3533 1.9964 8.3501.2445 1.1135-.4761 1.8825-.6981 2.0872-.3279.3024-.6985.4837-.9923.5877-.2883.1021-.717.2058-1.2027.1591-.4664-.0448-1.5165-.3232-1.9121-1.4792-.62-1.8118-2.1207-4.6724-3.7636-7.2278-.8124-1.2636-1.6241-2.3968-2.3331-3.2454-.3553-.4253-.6623-.7518-.9112-.9798-.2223-.2037-.3289-.2641-.328-.2658.0001-.0002.0008.0001.0022.0006zm10.1762 10.7589c-.0007-.0042-.0013-.0085-.002-.0128-.0649-.4284-.1519-.9248-.2589-1.4725-.1734-.8877-.3993-1.9103-.6681-2.9969-1.0204-4.1233-2.6609-9.1686-4.4119-11.2698-1.4882.0884-2.5085.6876-3.1533 1.3638-.1189.1247-.2251.252-.319.3793-.3999.5415-.5789 1.0811-.5817 1.4089 1.4817.6117 4.4962 4.9448 6.5832 8.8376.4873.9088.924 1.7937 1.2788 2.6016.2049.4666.3826.9076.5269 1.3127.0192.0539.0378.1072.0558.1598.116.339 1.0473-.0155.9502-.3117zm-1.9848.2511c.0147.1184.0419.2426.0844.3723-.0348-.106-.0606-.2146-.0772-.3248-.0024-.0158-.0048-.0316-.0072-.0475z" fill="#583a24" fill-rule="evenodd"/><path d="m41.666 22.3473c.5352.7442-.0824 2.1036-1.3794 3.0365s-2.7823 1.0859-3.3175.3417c-.5352-.7441.0823-2.1036 1.3793-3.0364 1.297-.9329 2.7824-1.0859 3.3176-.3418z" fill="#c27a49"/><path d="m42.4547 44.6632c1.6683 2.8631-.4609 7.2127-4.7556 9.7151-4.2947 2.5025-9.1286 2.21-10.7969-.6531-1.6683-2.8632.4609-7.2128 4.7556-9.7152s9.1286-2.21 10.7969.6532z" fill="#ffc671"/><path clip-rule="evenodd" d="m34.0831 47.1546c.5898.934.3108 2.1692-.6232 2.759-.7125.4499-1.2628.9944-1.6784 1.6355-.6008.9269-1.8392 1.1911-2.7661.5903s-1.1912-1.8393-.5903-2.7661c.7454-1.1499 1.721-2.0979 2.8991-2.8418.9339-.5898 2.1691-.3108 2.7589.6231z" fill="#fff" fill-rule="evenodd"/></svg>